<svg aria-hidden="true" focusable="false" width="24" height="24" viewBox="0 0 24 24" fill="none" xmlns="http://www.w3.org/2000/svg">
<g clip-path="url(#clip0_17_989)">
<path d="M13.7102 9.6L21.2462 2.064C21.5517 1.7585 21.6709 1.31331 21.5592 0.896018C21.4473 0.47883 21.1213 0.152841 20.7042 0.0410012C20.2868 -0.0706948 19.8417 0.0485012 19.5362 0.353992L12.0002 7.88999L4.46417 0.353992C4.15868 0.0484995 3.71349 -0.0707051 3.2962 0.0410012C2.87901 0.152831 2.55302 0.47883 2.44118 0.896018C2.32948 1.31334 2.44868 1.75851 2.75417 2.064L10.2902 9.6L2.75417 17.136C2.44868 17.4415 2.32947 17.8867 2.44118 18.304C2.55301 18.7212 2.87901 19.0472 3.2962 19.159C3.71352 19.2707 4.15869 19.1515 4.46417 18.846L12.0002 11.31L19.5362 18.846C19.8417 19.1515 20.2869 19.2707 20.7042 19.159C21.1213 19.0472 21.4473 18.7212 21.5592 18.304C21.6709 17.8866 21.5517 17.4415 21.2462 17.136L13.7102 9.6Z" fill="#737581"/>
<path d="M2.9025 21.42C2.87638 21.4336 2.8492 21.4438 2.82107 21.4505C2.79321 21.4572 2.76402 21.4607 2.73375 21.4607C2.64268 21.4607 2.57049 21.4354 2.51732 21.3846C2.46402 21.3336 2.4375 21.2645 2.4375 21.1773C2.4375 21.0898 2.46402 21.0207 2.51732 20.97C2.57049 20.919 2.64268 20.8934 2.73375 20.8934C2.76402 20.8934 2.79321 20.8969 2.82107 20.9036C2.8492 20.9104 2.87638 20.9206 2.9025 20.9341V21.0471C2.87638 21.0293 2.85067 21.0163 2.82536 21.008C2.79991 20.9998 2.77313 20.9957 2.745 20.9957C2.69464 20.9957 2.655 21.0118 2.62607 21.0439C2.59741 21.0761 2.58321 21.1205 2.58321 21.1773C2.58321 21.2338 2.59741 21.278 2.62607 21.3102C2.655 21.3423 2.69464 21.3584 2.745 21.3584C2.77312 21.3584 2.79991 21.3544 2.82536 21.346C2.85067 21.3379 2.87638 21.3249 2.9025 21.3069V21.42Z" fill="#737581"/>
<path d="M3.31796 21.1516C3.30644 21.1463 3.29506 21.1424 3.28367 21.1398C3.27256 21.137 3.26117 21.1355 3.24939 21.1355C3.21577 21.1355 3.18992 21.1465 3.17171 21.1682C3.15349 21.1896 3.14439 21.2206 3.14439 21.2609V21.45H3.01367V21.0396H3.14439V21.1071C3.16113 21.0804 3.18041 21.0609 3.20224 21.0487C3.22434 21.0363 3.25059 21.03 3.28099 21.03C3.28555 21.03 3.29037 21.0303 3.29546 21.0305C3.30041 21.0309 3.30791 21.0316 3.31796 21.0327L3.31796 21.1516Z" fill="#737581"/>
<path d="M3.79272 21.2437V21.2812H3.48629C3.4895 21.3121 3.50048 21.3351 3.5195 21.3504C3.53839 21.3658 3.56504 21.3734 3.59932 21.3734C3.62678 21.3734 3.65504 21.3694 3.68397 21.3611C3.7129 21.3529 3.74263 21.3406 3.77343 21.3241V21.4254C3.74236 21.4369 3.71129 21.4456 3.68022 21.4516C3.64914 21.4576 3.61807 21.4607 3.587 21.4607C3.51307 21.4607 3.45535 21.442 3.41396 21.4045C3.37285 21.3667 3.35236 21.3137 3.35236 21.2454C3.35236 21.1787 3.37245 21.1262 3.41289 21.0879C3.4532 21.0493 3.50892 21.03 3.58003 21.03C3.64432 21.03 3.69575 21.0496 3.73432 21.0884C3.77316 21.127 3.79271 21.1788 3.79271 21.2437L3.79272 21.2437ZM3.65772 21.2004C3.65772 21.1754 3.65035 21.1554 3.63575 21.1404C3.62142 21.1251 3.60254 21.1173 3.57897 21.1173C3.55352 21.1173 3.5329 21.1246 3.51683 21.1387C3.50102 21.1531 3.49125 21.1736 3.48736 21.2004L3.65772 21.2004Z" fill="#737581"/>
<path d="M4.076 21.2652C4.04841 21.2652 4.02778 21.2699 4.01385 21.2791C4.00019 21.2885 3.9935 21.3021 3.9935 21.3204C3.9935 21.3368 3.99899 21.3498 4.0101 21.3595C4.02109 21.3688 4.03662 21.3734 4.05671 21.3734C4.08135 21.3734 4.10198 21.3647 4.11885 21.3471C4.1356 21.3293 4.14403 21.307 4.14403 21.2802V21.2652L4.076 21.2652ZM4.27635 21.2159V21.45H4.14403V21.3895C4.12649 21.4141 4.10667 21.4322 4.08457 21.4436C4.06274 21.455 4.03595 21.4607 4.00421 21.4607C3.96162 21.4607 3.9272 21.4484 3.90082 21.4237C3.8743 21.3988 3.86118 21.3664 3.86118 21.3268C3.86118 21.279 3.87751 21.2437 3.91046 21.2212C3.94368 21.1987 3.99577 21.1875 4.06689 21.1875H4.14403V21.1773C4.14403 21.1567 4.13573 21.1414 4.11939 21.1318C4.10292 21.1221 4.07733 21.1173 4.04278 21.1173C4.01492 21.1173 3.98881 21.1203 3.96457 21.1259C3.94019 21.1312 3.91769 21.1397 3.89707 21.1511V21.0509C3.92519 21.0442 3.95345 21.039 3.98171 21.0354C4.00984 21.0319 4.03823 21.03 4.06689 21.03C4.14082 21.03 4.19412 21.0447 4.22707 21.0739C4.25988 21.1029 4.27636 21.1503 4.27636 21.2159L4.27635 21.2159Z" fill="#737581"/>
<path d="M4.54124 20.9234V21.0397H4.67624V21.1334H4.54124V21.3075C4.54124 21.3265 4.54499 21.3394 4.55249 21.3461C4.55999 21.3529 4.57499 21.3563 4.59749 21.3563H4.66499V21.45H4.55249C4.50066 21.45 4.46383 21.4393 4.44213 21.4179C4.4207 21.3962 4.40999 21.3593 4.40999 21.3075V21.1334H4.34464V21.0397H4.40999V20.9234L4.54124 20.9234Z" fill="#737581"/>
<path d="M5.16601 21.2437V21.2812H4.85958C4.86279 21.3121 4.87378 21.3351 4.89279 21.3504C4.91168 21.3658 4.93833 21.3734 4.97261 21.3734C5.00007 21.3734 5.02833 21.3694 5.05726 21.3611C5.08619 21.3529 5.11592 21.3406 5.14672 21.3241V21.4254C5.11565 21.4369 5.08458 21.4456 5.05351 21.4516C5.02243 21.4576 4.99136 21.4607 4.96029 21.4607C4.88636 21.4607 4.82864 21.442 4.78725 21.4045C4.74614 21.3667 4.72565 21.3137 4.72565 21.2454C4.72565 21.1787 4.74574 21.1262 4.78618 21.0879C4.82649 21.0493 4.88221 21.03 4.95332 21.03C5.01761 21.03 5.06904 21.0496 5.10761 21.0884C5.14645 21.127 5.166 21.1788 5.166 21.2437L5.16601 21.2437ZM5.03101 21.2004C5.03101 21.1754 5.02364 21.1554 5.00904 21.1404C4.99471 21.1251 4.97583 21.1173 4.95226 21.1173C4.92681 21.1173 4.90619 21.1246 4.89012 21.1387C4.87431 21.1531 4.86454 21.1736 4.86065 21.2004L5.03101 21.2004Z" fill="#737581"/>
<path d="M5.54397 21.0996V20.88H5.67629V21.45H5.54397V21.3905C5.52602 21.4149 5.5062 21.4327 5.4845 21.4441C5.46267 21.4551 5.43749 21.4607 5.40897 21.4607C5.35861 21.4607 5.31709 21.4408 5.28468 21.4007C5.25214 21.3604 5.23593 21.3086 5.23593 21.2454C5.23593 21.1822 5.25214 21.1306 5.28468 21.0905C5.31709 21.0502 5.35861 21.03 5.40897 21.03C5.43749 21.03 5.46267 21.0358 5.4845 21.0472C5.5062 21.0583 5.52602 21.0758 5.54397 21.0996V21.0996ZM5.45772 21.3654C5.48584 21.3654 5.50727 21.3552 5.522 21.3348C5.5366 21.3142 5.54397 21.2843 5.54397 21.2454C5.54397 21.2061 5.5366 21.1763 5.522 21.1559C5.50727 21.1355 5.48584 21.1254 5.45772 21.1254C5.42986 21.1254 5.40857 21.1355 5.39397 21.1559C5.37924 21.1763 5.372 21.2061 5.372 21.2454C5.372 21.2843 5.37924 21.3142 5.39397 21.3348C5.40857 21.3552 5.42986 21.3654 5.45772 21.3654V21.3654Z" fill="#737581"/>
<path d="M6.28151 21.3654C6.30964 21.3654 6.33107 21.3552 6.3458 21.3348C6.3604 21.3142 6.36776 21.2843 6.36776 21.2454C6.36776 21.2061 6.3604 21.1763 6.3458 21.1559C6.33107 21.1355 6.30964 21.1254 6.28151 21.1254C6.25325 21.1254 6.23169 21.1358 6.21669 21.1564C6.20169 21.1768 6.19419 21.2065 6.19419 21.2454C6.19419 21.2843 6.20169 21.3142 6.21669 21.3348C6.23169 21.3552 6.25325 21.3654 6.28151 21.3654V21.3654ZM6.19419 21.0996C6.21241 21.0758 6.23236 21.0583 6.25419 21.0472C6.27629 21.0358 6.3016 21.03 6.33026 21.03C6.38062 21.03 6.42201 21.0502 6.45455 21.0905C6.48696 21.1306 6.5033 21.1822 6.5033 21.2454C6.5033 21.3086 6.48696 21.3604 6.45455 21.4007C6.42201 21.4408 6.38062 21.4607 6.33026 21.4607C6.3016 21.4607 6.27629 21.455 6.25419 21.4436C6.23236 21.4322 6.2124 21.4145 6.19419 21.3905V21.45H6.06348V20.88H6.19419V21.0996Z" fill="#737581"/>
<path d="M6.54617 21.0396H6.67742L6.78778 21.3182L6.88153 21.0396H7.01225L6.83975 21.4886C6.82261 21.5342 6.80238 21.5663 6.77921 21.5845C6.75631 21.6027 6.72591 21.6118 6.68814 21.6118H6.61207V21.5261H6.65332C6.67542 21.5261 6.69149 21.5225 6.70153 21.5154C6.71184 21.5081 6.71975 21.4955 6.7251 21.4773L6.72885 21.4655L6.54617 21.0396Z" fill="#737581"/>
<path d="M7.78955 21.42C7.76344 21.4336 7.73625 21.4438 7.70813 21.4505C7.68027 21.4572 7.65107 21.4607 7.6208 21.4607C7.52973 21.4607 7.45755 21.4354 7.40438 21.3846C7.35107 21.3336 7.32455 21.2645 7.32455 21.1773C7.32455 21.0898 7.35107 21.0207 7.40438 20.97C7.45755 20.919 7.52973 20.8934 7.6208 20.8934C7.65107 20.8934 7.68027 20.8969 7.70813 20.9036C7.73625 20.9104 7.76344 20.9206 7.78955 20.9341V21.0471C7.76344 21.0293 7.73772 21.0163 7.71241 21.008C7.68697 20.9998 7.66018 20.9957 7.63205 20.9957C7.58169 20.9957 7.54205 21.0118 7.51312 21.0439C7.48446 21.0761 7.47027 21.1205 7.47027 21.1773C7.47027 21.2338 7.48446 21.278 7.51312 21.3102C7.54205 21.3423 7.58169 21.3584 7.63205 21.3584C7.66018 21.3584 7.68696 21.3544 7.71241 21.346C7.73772 21.3379 7.76344 21.3249 7.78955 21.3069V21.42Z" fill="#737581"/>
<path d="M8.20501 21.1516C8.19349 21.1463 8.18211 21.1424 8.17073 21.1398C8.15961 21.137 8.14823 21.1355 8.13644 21.1355C8.10282 21.1355 8.07697 21.1465 8.05876 21.1682C8.04055 21.1896 8.03144 21.2206 8.03144 21.2609V21.45H7.90073V21.0396H8.03144V21.1071C8.04818 21.0804 8.06747 21.0609 8.0893 21.0487C8.1114 21.0363 8.13765 21.03 8.16805 21.03C8.1726 21.03 8.17742 21.0303 8.18251 21.0305C8.18747 21.0309 8.19497 21.0316 8.20501 21.0327L8.20501 21.1516Z" fill="#737581"/>
<path d="M8.67989 21.2437V21.2812H8.37346C8.37668 21.3121 8.38766 21.3351 8.40668 21.3504C8.42556 21.3658 8.45221 21.3734 8.4865 21.3734C8.51395 21.3734 8.54221 21.3694 8.57114 21.3611C8.60007 21.3529 8.6298 21.3406 8.66061 21.3241V21.4254C8.62954 21.4369 8.59847 21.4456 8.56739 21.4516C8.53632 21.4576 8.50525 21.4607 8.47418 21.4607C8.40025 21.4607 8.34253 21.442 8.30114 21.4045C8.26003 21.3667 8.23953 21.3137 8.23953 21.2454C8.23953 21.1787 8.25962 21.1262 8.30007 21.0879C8.34038 21.0493 8.39609 21.03 8.46721 21.03C8.5315 21.03 8.58292 21.0496 8.6215 21.0884C8.66033 21.127 8.67989 21.1788 8.67989 21.2437L8.67989 21.2437ZM8.54489 21.2004C8.54489 21.1754 8.53753 21.1554 8.52293 21.1404C8.5086 21.1251 8.48971 21.1173 8.46614 21.1173C8.4407 21.1173 8.42007 21.1246 8.404 21.1387C8.3882 21.1531 8.37842 21.1736 8.37454 21.2004L8.54489 21.2004Z" fill="#737581"/>
<path d="M8.96305 21.2652C8.93546 21.2652 8.91484 21.2699 8.90091 21.2791C8.88725 21.2885 8.88055 21.3021 8.88055 21.3204C8.88055 21.3368 8.88604 21.3498 8.89716 21.3595C8.90814 21.3688 8.92368 21.3734 8.94377 21.3734C8.96841 21.3734 8.98903 21.3647 9.00591 21.3471C9.02265 21.3293 9.03109 21.307 9.03109 21.2802V21.2652L8.96305 21.2652ZM9.16341 21.2159V21.45H9.03109V21.3895C9.01354 21.4141 8.99372 21.4322 8.97162 21.4436C8.94979 21.455 8.923 21.4607 8.89126 21.4607C8.84867 21.4607 8.81425 21.4484 8.78787 21.4237C8.76135 21.3988 8.74823 21.3664 8.74823 21.3268C8.74823 21.279 8.76457 21.2437 8.79752 21.2212C8.83073 21.1987 8.88283 21.1875 8.95394 21.1875H9.03109V21.1773C9.03109 21.1567 9.02278 21.1414 9.00644 21.1318C8.98997 21.1221 8.96439 21.1173 8.92984 21.1173C8.90198 21.1173 8.87586 21.1203 8.85162 21.1259C8.82725 21.1312 8.80475 21.1397 8.78412 21.1511V21.0509C8.81225 21.0442 8.8405 21.039 8.86877 21.0354C8.89689 21.0319 8.92528 21.03 8.95395 21.03C9.02787 21.03 9.08118 21.0447 9.11413 21.0739C9.14694 21.1029 9.16341 21.1503 9.16341 21.2159L9.16341 21.2159Z" fill="#737581"/>
<path d="M9.42845 20.9234V21.0397H9.56345V21.1334H9.42845V21.3075C9.42845 21.3265 9.4322 21.3394 9.4397 21.3461C9.4472 21.3529 9.4622 21.3563 9.4847 21.3563H9.5522V21.45H9.4397C9.38787 21.45 9.35104 21.4393 9.32934 21.4179C9.30791 21.3962 9.2972 21.3593 9.2972 21.3075V21.1334H9.23184V21.0397H9.2972V20.9234L9.42845 20.9234Z" fill="#737581"/>
<path d="M9.64392 21.0396H9.77464V21.45H9.64392V21.0396ZM9.64392 20.88H9.77464V20.9871H9.64392V20.88Z" fill="#737581"/>
<path d="M9.84897 21.0396H9.98022L10.0825 21.323L10.1843 21.0396H10.3156L10.1543 21.45H10.0102L9.84897 21.0396Z" fill="#737581"/>
<path d="M10.7992 21.2437V21.2812H10.4928C10.496 21.3121 10.507 21.3351 10.526 21.3504C10.5449 21.3658 10.5715 21.3734 10.6058 21.3734C10.6332 21.3734 10.6615 21.3694 10.6904 21.3611C10.7194 21.3529 10.7491 21.3406 10.7799 21.3241V21.4254C10.7488 21.4369 10.7178 21.4456 10.6867 21.4516C10.6556 21.4576 10.6245 21.4607 10.5935 21.4607C10.5195 21.4607 10.4618 21.442 10.4204 21.4045C10.3793 21.3667 10.3588 21.3137 10.3588 21.2454C10.3588 21.1787 10.3789 21.1262 10.4194 21.0879C10.4597 21.0493 10.5154 21.03 10.5865 21.03C10.6508 21.03 10.7022 21.0496 10.7408 21.0884C10.7796 21.127 10.7992 21.1788 10.7992 21.2437L10.7992 21.2437ZM10.6642 21.2004C10.6642 21.1754 10.6568 21.1554 10.6422 21.1404C10.6279 21.1251 10.609 21.1173 10.5854 21.1173C10.56 21.1173 10.5394 21.1246 10.5233 21.1387C10.5075 21.1531 10.4977 21.1736 10.4938 21.2004L10.6642 21.2004Z" fill="#737581"/>
<path d="M11.1655 20.903H11.3444L11.4692 21.1961L11.5946 20.903H11.7735V21.45H11.6401V21.0504L11.5142 21.345H11.4248L11.2989 21.0504V21.45H11.1655V20.903Z" fill="#737581"/>
<path d="M12.0897 21.2652C12.0621 21.2652 12.0415 21.2699 12.0276 21.2791C12.0139 21.2885 12.0072 21.3021 12.0072 21.3204C12.0072 21.3368 12.0127 21.3498 12.0238 21.3595C12.0348 21.3688 12.0504 21.3734 12.0704 21.3734C12.0951 21.3734 12.1157 21.3647 12.1326 21.3471C12.1493 21.3293 12.1578 21.307 12.1578 21.2802V21.2652L12.0897 21.2652ZM12.2901 21.2159V21.45H12.1578V21.3895C12.1402 21.4141 12.1204 21.4322 12.0983 21.4436C12.0765 21.455 12.0497 21.4607 12.0179 21.4607C11.9754 21.4607 11.9409 21.4484 11.9145 21.4237C11.888 21.3988 11.8749 21.3664 11.8749 21.3268C11.8749 21.279 11.8912 21.2437 11.9242 21.2212C11.9574 21.1987 12.0095 21.1875 12.0806 21.1875H12.1578V21.1773C12.1578 21.1567 12.1495 21.1414 12.1331 21.1318C12.1166 21.1221 12.0911 21.1173 12.0565 21.1173C12.0287 21.1173 12.0025 21.1203 11.9783 21.1259C11.9539 21.1312 11.9314 21.1397 11.9108 21.1511V21.0509C11.9389 21.0442 11.9672 21.039 11.9954 21.0354C12.0236 21.0319 12.052 21.03 12.0806 21.03C12.1546 21.03 12.2079 21.0447 12.2408 21.0739C12.2736 21.1029 12.2901 21.1503 12.2901 21.2159L12.2901 21.2159Z" fill="#737581"/>
<path d="M12.824 21.2004V21.45H12.6923V21.2598C12.6923 21.2238 12.6913 21.1992 12.6896 21.1859C12.6881 21.1724 12.6854 21.1623 12.6815 21.1559C12.6765 21.1473 12.6695 21.1408 12.6607 21.1361C12.6521 21.1311 12.642 21.1286 12.6307 21.1286C12.6035 21.1286 12.582 21.1393 12.5664 21.1607C12.5506 21.1819 12.5428 21.2109 12.5428 21.248V21.45H12.4121V20.88H12.5428V21.0996C12.5627 21.0758 12.5838 21.0583 12.606 21.0471C12.6281 21.0358 12.6526 21.03 12.6794 21.03C12.7268 21.03 12.7627 21.0447 12.7871 21.0739C12.8117 21.1029 12.824 21.145 12.824 21.2004L12.824 21.2004Z" fill="#737581"/>
<path d="M12.946 21.0396H13.0767V21.45H12.946V21.0396ZM12.946 20.88H13.0767V20.9871H12.946V20.88Z" fill="#737581"/>
<path d="M13.5074 21.1516C13.4959 21.1463 13.4845 21.1424 13.4731 21.1398C13.462 21.137 13.4506 21.1355 13.4388 21.1355C13.4052 21.1355 13.3793 21.1465 13.3611 21.1682C13.3429 21.1896 13.3338 21.2206 13.3338 21.2609V21.45H13.2031V21.0396H13.3338V21.1071C13.3505 21.0804 13.3698 21.0609 13.3917 21.0487C13.4138 21.0363 13.44 21.03 13.4704 21.03C13.475 21.03 13.4798 21.0303 13.4849 21.0305C13.4898 21.0309 13.4973 21.0316 13.5074 21.0327L13.5074 21.1516Z" fill="#737581"/>
<path d="M13.7568 21.2652C13.7292 21.2652 13.7085 21.2699 13.6946 21.2791C13.6809 21.2885 13.6743 21.3021 13.6743 21.3204C13.6743 21.3368 13.6797 21.3498 13.6909 21.3595C13.7018 21.3688 13.7174 21.3734 13.7375 21.3734C13.7621 21.3734 13.7827 21.3647 13.7996 21.3471C13.8164 21.3293 13.8248 21.307 13.8248 21.2802V21.2652L13.7568 21.2652ZM13.9571 21.2159V21.45H13.8248V21.3895C13.8072 21.4141 13.7874 21.4322 13.7653 21.4436C13.7435 21.455 13.7167 21.4607 13.685 21.4607C13.6424 21.4607 13.608 21.4484 13.5816 21.4237C13.5551 21.3988 13.5419 21.3664 13.5419 21.3268C13.5419 21.279 13.5583 21.2437 13.5912 21.2212C13.6244 21.1987 13.6765 21.1875 13.7476 21.1875H13.8248V21.1773C13.8248 21.1567 13.8165 21.1414 13.8001 21.1318C13.7837 21.1221 13.7581 21.1173 13.7235 21.1173C13.6957 21.1173 13.6696 21.1203 13.6453 21.1259C13.6209 21.1312 13.5984 21.1397 13.5778 21.1511V21.0509C13.6059 21.0442 13.6342 21.039 13.6625 21.0354C13.6906 21.0319 13.719 21.03 13.7476 21.03C13.8216 21.03 13.8749 21.0447 13.9078 21.0739C13.9406 21.1029 13.9571 21.1503 13.9571 21.2159L13.9571 21.2159Z" fill="#737581"/>
<path d="M2.73267 21.63V21.7163H2.66035C2.64173 21.7163 2.62874 21.7197 2.62124 21.7264C2.61401 21.7333 2.61053 21.7449 2.61053 21.7613V21.7896H2.72249V21.8834H2.61053V22.2H2.47928V21.8834H2.41446V21.7896H2.47928V21.7613C2.47928 21.7167 2.49174 21.6836 2.51678 21.6621C2.54169 21.6407 2.58026 21.63 2.6325 21.63L2.73267 21.63Z" fill="#737581"/>
<path d="M3.09377 21.9016C3.08226 21.8963 3.07087 21.8924 3.05949 21.8898C3.04837 21.887 3.03699 21.8855 3.0252 21.8855C2.99159 21.8855 2.96574 21.8965 2.94753 21.9182C2.92931 21.9396 2.9202 21.9706 2.9202 22.0109V22.2H2.78949V21.7896H2.9202V21.8571C2.93695 21.8304 2.95623 21.8109 2.97806 21.7987C3.00016 21.7863 3.02641 21.78 3.05681 21.78C3.06137 21.78 3.06619 21.7803 3.07128 21.7805C3.07623 21.7809 3.08373 21.7816 3.09378 21.7827L3.09377 21.9016Z" fill="#737581"/>
<path d="M3.35437 21.8737C3.32544 21.8737 3.30321 21.8843 3.28794 21.9054C3.27254 21.9261 3.2649 21.9561 3.2649 21.9954C3.2649 22.0347 3.27254 22.0649 3.28794 22.0859C3.30321 22.1067 3.32544 22.117 3.35437 22.117C3.3829 22.117 3.40473 22.1067 3.41972 22.0859C3.43499 22.0649 3.44276 22.0347 3.44276 21.9954C3.44276 21.9561 3.43499 21.9261 3.41972 21.9054C3.40472 21.8843 3.38289 21.8737 3.35437 21.8737ZM3.35437 21.78C3.42468 21.78 3.47972 21.7992 3.51937 21.8373C3.55928 21.8752 3.57937 21.9279 3.57937 21.9954C3.57937 22.0629 3.55928 22.1158 3.51937 22.1539C3.47973 22.1918 3.42468 22.2107 3.35437 22.2107C3.28365 22.2107 3.22821 22.1918 3.1883 22.1539C3.14825 22.1158 3.1283 22.0629 3.1283 21.9954C3.1283 21.9279 3.14825 21.8752 3.1883 21.8373C3.22821 21.7992 3.28365 21.78 3.35437 21.78Z" fill="#737581"/>
<path d="M4.05442 21.8582C4.07116 21.8325 4.09085 21.8131 4.11335 21.7998C4.13612 21.7867 4.1613 21.78 4.18889 21.78C4.23603 21.78 4.27192 21.7947 4.29656 21.8239C4.32121 21.8528 4.33353 21.895 4.33353 21.9503V22.2H4.20174V21.9862C4.20201 21.983 4.20228 21.9798 4.20228 21.9766V21.9616C4.20228 21.9327 4.19799 21.9116 4.18942 21.8984C4.18085 21.8852 4.16705 21.8785 4.14817 21.8785C4.12313 21.8785 4.10384 21.889 4.09031 21.9096C4.07705 21.93 4.07009 21.9597 4.06942 21.9985V22.2H3.93763V21.9862C3.93763 21.941 3.93361 21.9116 3.92585 21.8984C3.91795 21.8852 3.90402 21.8785 3.88406 21.8785C3.85901 21.8785 3.83959 21.889 3.82567 21.9096C3.81201 21.9304 3.80531 21.9598 3.80531 21.998V22.2H3.67352V21.7896H3.80531V21.8496C3.82138 21.8268 3.83973 21.8094 3.86049 21.7976C3.88152 21.7859 3.90469 21.78 3.93013 21.78C3.95826 21.78 3.9833 21.7868 4.00513 21.8003C4.02683 21.814 4.0433 21.8333 4.05442 21.8582L4.05442 21.8582Z" fill="#737581"/>
<path d="M4.86027 21.6734V21.7897H4.99527V21.8834H4.86027V22.0575C4.86027 22.0765 4.86402 22.0894 4.87152 22.0961C4.87902 22.1029 4.89402 22.1063 4.91652 22.1063H4.98402V22.2H4.87152C4.81969 22.2 4.78286 22.1893 4.76116 22.1679C4.73974 22.1462 4.72902 22.1093 4.72902 22.0575V21.8834H4.66367V21.7897H4.72902V21.6734L4.86027 21.6734Z" fill="#737581"/>
<path d="M5.48771 21.9504V22.2H5.35592V22.0098C5.35592 21.9738 5.35499 21.9492 5.35324 21.9359C5.35177 21.9224 5.34909 21.9123 5.34521 21.9059C5.34012 21.8973 5.33316 21.8908 5.32432 21.8861C5.31574 21.8811 5.3057 21.8786 5.29432 21.8786C5.26713 21.8786 5.2457 21.8893 5.23003 21.9107C5.21423 21.9319 5.20646 21.9609 5.20646 21.998V22.2H5.07574V21.63H5.20646V21.8496C5.22641 21.8258 5.24744 21.8083 5.26967 21.7971C5.29177 21.7858 5.31628 21.78 5.34307 21.78C5.39048 21.78 5.42637 21.7947 5.45074 21.8239C5.47539 21.8529 5.48771 21.895 5.48771 21.9504L5.48771 21.9504Z" fill="#737581"/>
<path d="M6.019 21.9937V22.0312H5.71258C5.71579 22.0621 5.72677 22.0851 5.74579 22.1004C5.76467 22.1158 5.79132 22.1234 5.82561 22.1234C5.85307 22.1234 5.88132 22.1194 5.91026 22.1111C5.93918 22.1029 5.96891 22.0906 5.99972 22.0741V22.1754C5.96865 22.1869 5.93758 22.1956 5.9065 22.2016C5.87543 22.2076 5.84436 22.2107 5.81329 22.2107C5.73936 22.2107 5.68164 22.192 5.64025 22.1545C5.59914 22.1167 5.57864 22.0637 5.57864 21.9954C5.57864 21.9287 5.59873 21.8762 5.63918 21.8379C5.67949 21.7993 5.73521 21.78 5.80632 21.78C5.87061 21.78 5.92204 21.7996 5.96061 21.8384C5.99945 21.877 6.019 21.9288 6.019 21.9937L6.019 21.9937ZM5.884 21.9504C5.884 21.9254 5.87664 21.9054 5.86204 21.8904C5.84771 21.8751 5.82883 21.8673 5.80526 21.8673C5.77981 21.8673 5.75918 21.8746 5.74311 21.8887C5.72731 21.9031 5.71753 21.9236 5.71365 21.9504L5.884 21.9504Z" fill="#737581"/>
<path d="M6.38532 21.653H6.54228L6.74157 22.0281V21.653H6.87496V22.2H6.71746L6.51871 21.825V22.2H6.38531L6.38532 21.653Z" fill="#737581"/>
<path d="M7.20215 21.8737C7.17322 21.8737 7.15099 21.8843 7.13572 21.9054C7.12032 21.9261 7.11268 21.9561 7.11268 21.9954C7.11268 22.0347 7.12032 22.0649 7.13572 22.0859C7.15099 22.1067 7.17322 22.117 7.20215 22.117C7.23067 22.117 7.25251 22.1067 7.2675 22.0859C7.28277 22.0649 7.29054 22.0347 7.29054 21.9954C7.29054 21.9561 7.28277 21.9261 7.2675 21.9054C7.2525 21.8843 7.23067 21.8737 7.20215 21.8737ZM7.20215 21.78C7.27246 21.78 7.3275 21.7992 7.36715 21.8373C7.40706 21.8752 7.42715 21.9279 7.42715 21.9954C7.42715 22.0629 7.40706 22.1158 7.36715 22.1539C7.32751 22.1918 7.27246 22.2107 7.20215 22.2107C7.13143 22.2107 7.07599 22.1918 7.03607 22.1539C6.99603 22.1158 6.97607 22.0629 6.97607 21.9954C6.97607 21.9279 6.99603 21.8752 7.03607 21.8373C7.07599 21.7992 7.13143 21.78 7.20215 21.78Z" fill="#737581"/>
<path d="M7.51755 22.0404V21.7896H7.64934V21.8309C7.64934 21.8531 7.64907 21.881 7.6488 21.9145V21.982C7.6488 22.0149 7.6496 22.0386 7.65148 22.0532C7.65322 22.0675 7.65603 22.0781 7.66005 22.0848C7.66541 22.0934 7.67237 22.1001 7.68094 22.1046C7.68978 22.1093 7.69983 22.1116 7.71094 22.1116C7.7384 22.1116 7.75983 22.1012 7.77523 22.08C7.7909 22.059 7.7988 22.0296 7.7988 21.9921V21.7896H7.93005V22.2H7.7988V22.1405C7.77911 22.1645 7.75822 22.1822 7.73612 22.1936C7.71389 22.205 7.68965 22.2107 7.66326 22.2107C7.61572 22.2107 7.57943 22.1963 7.55451 22.1673C7.52987 22.1381 7.51755 22.0958 7.51755 22.0404L7.51755 22.0404Z" fill="#737581"/>
<path d="M8.4683 21.9504V22.2H8.33651V22.0088C8.33651 21.9734 8.33558 21.9492 8.33384 21.9359C8.33236 21.9224 8.32968 21.9123 8.3258 21.9059C8.32071 21.8973 8.31375 21.8908 8.30491 21.8861C8.29634 21.8811 8.28629 21.8786 8.27491 21.8786C8.24772 21.8786 8.22629 21.8893 8.21062 21.9107C8.19482 21.9319 8.18705 21.9609 8.18705 21.998V22.2H8.05634V21.7896H8.18705V21.8496C8.20701 21.8258 8.22803 21.8083 8.25027 21.7971C8.27236 21.7858 8.29687 21.78 8.32366 21.78C8.37107 21.78 8.40696 21.7947 8.43134 21.8239C8.45598 21.8529 8.4683 21.895 8.4683 21.9504L8.4683 21.9504Z" fill="#737581"/>
<path d="M8.85724 21.653H9.09081C9.16045 21.653 9.21376 21.6686 9.25099 21.6997C9.28849 21.7305 9.30724 21.7744 9.30724 21.8314C9.30724 21.889 9.28849 21.9332 9.25099 21.9643C9.21376 21.9951 9.16045 22.0104 9.09081 22.0104H8.99813V22.2H8.85724V21.653ZM8.99813 21.7554V21.908H9.07581C9.10327 21.908 9.12429 21.9015 9.13903 21.8882C9.15403 21.8751 9.16153 21.8561 9.16153 21.8314C9.16153 21.8072 9.15403 21.7884 9.13903 21.7752C9.12429 21.7621 9.10327 21.7554 9.07581 21.7554L8.99813 21.7554Z" fill="#737581"/>
<path d="M9.70541 21.9016C9.69389 21.8963 9.68251 21.8924 9.67112 21.8898C9.66001 21.887 9.64862 21.8855 9.63684 21.8855C9.60322 21.8855 9.57737 21.8965 9.55916 21.9182C9.54094 21.9396 9.53184 21.9706 9.53184 22.0109V22.2H9.40112V21.7896H9.53184V21.8571C9.54858 21.8304 9.56786 21.8109 9.58969 21.7987C9.61179 21.7863 9.63804 21.78 9.66845 21.78C9.673 21.78 9.67782 21.7803 9.68291 21.7805C9.68787 21.7809 9.69537 21.7816 9.70541 21.7827L9.70541 21.9016Z" fill="#737581"/>
<path d="M9.96591 21.8737C9.93698 21.8737 9.91475 21.8843 9.89948 21.9054C9.88408 21.9261 9.87645 21.9561 9.87645 21.9954C9.87645 22.0347 9.88408 22.0649 9.89948 22.0859C9.91475 22.1067 9.93698 22.117 9.96591 22.117C9.99444 22.117 10.0163 22.1067 10.0313 22.0859C10.0465 22.0649 10.0543 22.0347 10.0543 21.9954C10.0543 21.9561 10.0465 21.9261 10.0313 21.9054C10.0163 21.8843 9.99444 21.8737 9.96591 21.8737ZM9.96591 21.78C10.0362 21.78 10.0913 21.7992 10.1309 21.8373C10.1708 21.8752 10.1909 21.9279 10.1909 21.9954C10.1909 22.0629 10.1708 22.1158 10.1309 22.1539C10.0913 22.1918 10.0362 22.2107 9.96591 22.2107C9.8952 22.2107 9.83975 22.1918 9.79984 22.1539C9.75979 22.1158 9.73984 22.0629 9.73984 21.9954C9.73984 21.9279 9.75979 21.8752 9.79984 21.8373C9.83975 21.7992 9.89519 21.78 9.96591 21.78Z" fill="#737581"/>
<path d="M10.2862 21.7896H10.417V22.1925C10.417 22.2474 10.4037 22.2895 10.3773 22.3184C10.3512 22.3473 10.3132 22.3618 10.2632 22.3618H10.1984V22.2761H10.2209C10.2458 22.2761 10.2629 22.2703 10.2723 22.2589C10.2816 22.2478 10.2863 22.2257 10.2863 22.1925L10.2862 21.7896ZM10.2862 21.63H10.417V21.7371H10.2862V21.63Z" fill="#737581"/>
<path d="M10.9525 21.9937V22.0312H10.6461C10.6493 22.0621 10.6603 22.0851 10.6793 22.1004C10.6982 22.1158 10.7249 22.1234 10.7591 22.1234C10.7866 22.1234 10.8149 22.1194 10.8438 22.1111C10.8727 22.1029 10.9024 22.0906 10.9333 22.0741V22.1754C10.9022 22.1869 10.8711 22.1956 10.84 22.2016C10.809 22.2076 10.7779 22.2107 10.7468 22.2107C10.6729 22.2107 10.6152 22.192 10.5738 22.1545C10.5327 22.1167 10.5122 22.0637 10.5122 21.9954C10.5122 21.9287 10.5323 21.8762 10.5727 21.8379C10.613 21.7993 10.6687 21.78 10.7399 21.78C10.8041 21.78 10.8556 21.7996 10.8941 21.8384C10.933 21.877 10.9525 21.9288 10.9525 21.9937L10.9525 21.9937ZM10.8175 21.9504C10.8175 21.9254 10.8102 21.9054 10.7956 21.8904C10.7812 21.8751 10.7624 21.8673 10.7388 21.8673C10.7133 21.8673 10.6927 21.8746 10.6766 21.8887C10.6608 21.9031 10.6511 21.9236 10.6472 21.9504L10.8175 21.9504Z" fill="#737581"/>
<path d="M11.383 21.8025V21.9096C11.365 21.8976 11.3472 21.8886 11.3294 21.8829C11.3115 21.8768 11.293 21.8737 11.2737 21.8737C11.2369 21.8737 11.2083 21.8845 11.188 21.9059C11.1676 21.9273 11.1575 21.9572 11.1575 21.9954C11.1575 22.0337 11.1676 22.0634 11.188 22.0848C11.2083 22.1062 11.2369 22.117 11.2737 22.117C11.2941 22.117 11.3133 22.114 11.3316 22.1079C11.35 22.1018 11.3672 22.0927 11.383 22.0805V22.1877C11.3626 22.1956 11.3419 22.2012 11.3208 22.2048C11.2997 22.2087 11.2785 22.2107 11.2571 22.2107C11.1832 22.2107 11.1253 22.1918 11.0835 22.1539C11.0417 22.1158 11.0208 22.0629 11.0208 21.9954C11.0208 21.9279 11.0417 21.8752 11.0835 21.8373C11.1253 21.7992 11.1832 21.78 11.2571 21.78C11.2785 21.78 11.2995 21.782 11.3203 21.7859C11.3413 21.7895 11.3622 21.795 11.383 21.8025V21.8025Z" fill="#737581"/>
<path d="M11.6396 21.6734V21.7897H11.7746V21.8834H11.6396V22.0575C11.6396 22.0765 11.6433 22.0894 11.6508 22.0961C11.6583 22.1029 11.6733 22.1063 11.6958 22.1063H11.7633V22.2H11.6509C11.599 22.2 11.5622 22.1893 11.5405 22.1679C11.5191 22.1462 11.5083 22.1093 11.5083 22.0575V21.8834H11.443V21.7897H11.5083V21.6734L11.6396 21.6734Z" fill="#737581"/>
</g>
<defs>
<clipPath id="clip0_17_989">
<rect width="24" height="24" fill="white"/>
</clipPath>
</defs>
</svg>
