<svg width="382" height="300" viewBox="0 0 382 300" fill="none" xmlns="http://www.w3.org/2000/svg">
<g clip-path="url(#clip0_17_957)">
<path d="M347.72 273.868C340.397 281.711 332.006 288.482 322.795 293.983C322.583 294.113 322.369 294.235 322.153 294.361L307.24 281.159C307.397 281.013 307.571 280.85 307.757 280.67C318.869 270.117 374.03 196.327 377.706 178.358C377.453 179.855 381.023 238.561 347.72 273.868Z" fill="#F0F0F0"/>
<path d="M325.672 296.531C325.39 296.598 325.103 296.661 324.815 296.718L313.628 286.813C313.846 286.737 314.102 286.647 314.394 286.546C319.194 284.846 333.491 279.713 347.719 273.867C363.007 267.583 378.221 260.483 381.493 255.935C380.791 256.992 359.17 289.038 325.672 296.531Z" fill="#F0F0F0"/>
<path d="M347.513 78.5692H345.92V34.9111C345.92 31.5929 345.266 28.3071 343.997 25.2414C342.727 22.1758 340.867 19.3902 338.521 17.0439C336.175 14.6975 333.391 12.8363 330.326 11.5664C327.261 10.2966 323.976 9.64301 320.659 9.64301H228.189C224.871 9.643 221.587 10.2966 218.522 11.5664C215.457 12.8362 212.672 14.6975 210.326 17.0438C207.981 19.3902 206.12 22.1757 204.851 25.2414C203.581 28.307 202.928 31.5928 202.928 34.911V274.423C202.928 277.741 203.581 281.027 204.85 284.092C206.12 287.158 207.981 289.943 210.326 292.29C212.672 294.636 215.457 296.497 218.522 297.767C221.587 299.037 224.871 299.691 228.189 299.691H320.659C323.976 299.691 327.261 299.037 330.326 297.767C333.391 296.497 336.175 294.636 338.521 292.29C340.867 289.943 342.727 287.158 343.997 284.092C345.266 281.027 345.92 277.741 345.92 274.423V109.646H347.513V78.5692Z" fill="#3F3D56"/>
<path d="M340.543 35.0847V274.247C340.543 276.726 340.055 279.179 339.106 281.469C338.158 283.758 336.768 285.838 335.016 287.59C333.264 289.342 331.184 290.732 328.895 291.679C326.606 292.627 324.152 293.114 321.675 293.114H228.76C226.283 293.114 223.83 292.626 221.542 291.678C219.253 290.73 217.174 289.34 215.423 287.588C213.671 285.836 212.282 283.756 211.334 281.467C210.386 279.178 209.899 276.725 209.899 274.247V35.0847C209.899 32.6071 210.386 30.1537 211.334 27.8647C212.282 25.5757 213.671 23.4959 215.423 21.7439C217.174 19.992 219.253 18.6024 221.542 17.6543C223.83 16.7063 226.283 16.2184 228.76 16.2186H240.036C239.482 17.58 239.271 19.0565 239.422 20.5183C239.573 21.9801 240.081 23.3825 240.901 24.602C241.72 25.8216 242.827 26.821 244.124 27.5123C245.42 28.2036 246.866 28.5657 248.336 28.5667H301.309C302.779 28.5681 304.227 28.2075 305.525 27.5169C306.823 26.8262 307.931 25.8267 308.751 24.6064C309.571 23.3861 310.079 21.9827 310.228 20.5199C310.378 19.0571 310.166 17.5799 309.61 16.2186H321.675C324.152 16.2177 326.606 16.7051 328.895 17.6528C331.184 18.6005 333.264 19.99 335.016 21.742C336.768 23.4939 338.158 25.574 339.106 27.8634C340.055 30.1528 340.543 32.6066 340.543 35.0847Z" fill="white"/>
<path d="M311.64 159.367H229.97C228.54 159.365 227.169 158.796 226.157 157.784C225.146 156.772 224.577 155.4 224.575 153.97V151.283C224.577 149.852 225.146 148.48 226.157 147.469C227.169 146.457 228.54 145.888 229.97 145.886H311.64C313.071 145.888 314.442 146.457 315.453 147.469C316.465 148.48 317.034 149.852 317.036 151.283V153.97C317.034 155.4 316.465 156.772 315.453 157.784C314.442 158.796 313.071 159.365 311.64 159.367Z" fill="#F0F0F0"/>
<path d="M311.64 182.523H229.97C228.54 182.522 227.169 181.953 226.157 180.941C225.146 179.929 224.577 178.557 224.575 177.126V174.44C224.577 173.009 225.146 171.637 226.157 170.626C227.169 169.614 228.54 169.045 229.97 169.043H311.64C313.071 169.045 314.442 169.614 315.453 170.626C316.465 171.637 317.034 173.009 317.036 174.44V177.126C317.034 178.557 316.465 179.929 315.453 180.941C314.442 181.953 313.071 182.522 311.64 182.523Z" fill="#F0F0F0"/>
<path d="M315.725 154.187H234.056C232.554 154.186 231.114 153.588 230.052 152.526C228.99 151.463 228.392 150.023 228.391 148.521V145.834C228.392 144.332 228.99 142.891 230.052 141.829C231.114 140.767 232.554 140.169 234.056 140.167H315.725C317.227 140.169 318.667 140.767 319.729 141.829C320.791 142.891 321.389 144.332 321.391 145.834V148.521C321.389 150.023 320.791 151.463 319.729 152.526C318.667 153.588 317.227 154.186 315.725 154.187ZM234.056 141.247C232.84 141.248 231.674 141.732 230.814 142.592C229.955 143.452 229.471 144.618 229.47 145.834V148.521C229.471 149.737 229.955 150.903 230.814 151.763C231.674 152.623 232.84 153.107 234.056 153.108H315.725C316.941 153.107 318.107 152.623 318.967 151.763C319.827 150.903 320.31 149.737 320.312 148.521V145.834C320.31 144.618 319.827 143.452 318.967 142.592C318.107 141.732 316.941 141.248 315.725 141.247H234.056Z" fill="#3F3D56"/>
<path d="M315.725 177.344H234.056C232.554 177.343 231.114 176.745 230.052 175.683C228.99 174.62 228.392 173.18 228.391 171.678V168.991C228.392 167.489 228.99 166.048 230.052 164.986C231.114 163.924 232.554 163.326 234.056 163.324H315.725C317.227 163.326 318.667 163.924 319.729 164.986C320.791 166.048 321.389 167.489 321.391 168.991V171.678C321.389 173.18 320.791 174.62 319.729 175.683C318.667 176.745 317.227 177.343 315.725 177.344ZM234.056 164.404C232.84 164.405 231.674 164.889 230.814 165.749C229.955 166.609 229.471 167.775 229.47 168.991V171.678C229.471 172.894 229.955 174.06 230.814 174.92C231.674 175.78 232.84 176.264 234.056 176.265H315.725C316.941 176.264 318.107 175.78 318.967 174.92C319.827 174.06 320.31 172.894 320.312 171.678V168.991C320.31 167.775 319.827 166.609 318.967 165.749C318.107 164.889 316.941 164.405 315.725 164.404H234.056Z" fill="#3F3D56"/>
<path d="M340.543 35.0847V87.1059C332.279 89.2806 323.627 89.5301 315.251 87.8352C306.876 86.1404 299.001 82.5463 292.233 77.3296C285.464 72.1128 279.982 65.4124 276.208 57.7439C272.434 50.0754 270.469 41.6432 270.465 33.0959C270.465 31.5703 270.526 30.0606 270.649 28.5667H301.309C302.779 28.5681 304.227 28.2076 305.525 27.5169C306.823 26.8262 307.931 25.8267 308.751 24.6064C309.571 23.3861 310.079 21.9827 310.228 20.5199C310.378 19.0571 310.166 17.5799 309.61 16.2186H321.675C324.152 16.2177 326.606 16.7051 328.895 17.6528C331.184 18.6005 333.264 19.99 335.016 21.742C336.768 23.4939 338.158 25.574 339.106 27.8634C340.055 30.1528 340.543 32.6066 340.543 35.0847Z" fill="#F0F0F0"/>
<path d="M256.847 289.865C256.847 290.961 256.806 292.044 256.717 293.114H228.76C226.283 293.114 223.83 292.626 221.542 291.678C219.253 290.73 217.174 289.34 215.423 287.588C213.671 285.836 212.282 283.757 211.334 281.467C210.386 279.178 209.899 276.725 209.899 274.248V248.666C215.759 247.904 221.715 248.399 227.368 250.12C233.022 251.841 238.244 254.748 242.687 258.646C247.129 262.545 250.69 267.345 253.131 272.728C255.573 278.112 256.84 283.953 256.847 289.865H256.847Z" fill="#058C88"/>
<path d="M31.3593 244.979C32.1448 245.324 33.0354 245.344 33.8356 245.034C34.6357 244.723 35.2802 244.108 35.6276 243.323L60.8134 186.227C61.3898 184.92 61.5659 183.472 61.3195 182.065C61.073 180.658 60.4151 179.356 59.4288 178.324C58.4425 177.291 57.1722 176.574 55.7785 176.263C54.3849 175.953 52.9305 176.063 51.5993 176.579H51.5992C50.0612 177.167 48.7742 178.269 47.9572 179.699C47.8272 179.925 47.7094 180.158 47.6041 180.397L22.4184 237.493C22.2467 237.882 22.1534 238.301 22.1436 238.726C22.1339 239.152 22.208 239.575 22.3617 239.971C22.5154 240.368 22.7456 240.73 23.0393 241.037C23.333 241.345 23.6844 241.591 24.0734 241.763L31.3593 244.979Z" fill="#058C88"/>
<path d="M59.7794 209.667L34.8675 204.13L41.0334 187.814C42.0838 183.826 44.5284 180.346 47.9236 178.007C51.3189 175.667 55.44 174.622 59.5394 175.062L59.7794 175.088L59.7794 209.667Z" fill="#2F2E41"/>
<path d="M110.097 245.795C109.365 245.794 108.648 245.58 108.034 245.18C107.42 244.78 106.935 244.211 106.638 243.541L81.4523 186.444C80.6513 184.628 80.5769 182.573 81.2442 180.703C81.9116 178.833 83.2701 177.29 85.0401 176.392C86.8101 175.493 88.8572 175.307 90.76 175.872C92.6629 176.438 94.2768 177.711 95.2698 179.43V179.43C95.4094 179.672 95.5359 179.923 95.6489 180.179L120.835 237.276C121.239 238.192 121.263 239.232 120.901 240.166C120.538 241.1 119.82 241.852 118.904 242.257L111.371 245.581L111.367 245.573C110.96 245.72 110.53 245.795 110.097 245.795Z" fill="#058C88"/>
<path d="M75.2591 226.189C74.4008 226.189 73.578 226.531 72.9711 227.138C72.3641 227.745 72.0228 228.568 72.0218 229.427V295.817C72.0228 296.676 72.3641 297.499 72.9711 298.106C73.578 298.713 74.4008 299.054 75.2591 299.055H83.2226C84.0809 299.054 84.9037 298.713 85.5106 298.106C86.1175 297.499 86.4589 296.676 86.4599 295.817V229.427C86.4589 228.568 86.1175 227.745 85.5106 227.138C84.9037 226.531 84.0809 226.189 83.2226 226.189H75.2591Z" fill="#058C88"/>
<path d="M59.5084 226.189C58.6501 226.189 57.8273 226.531 57.2204 227.138C56.6135 227.745 56.2721 228.568 56.2711 229.427V295.817C56.2721 296.676 56.6135 297.499 57.2204 298.106C57.8273 298.713 58.6501 299.054 59.5084 299.055H67.472C68.3303 299.054 69.1532 298.713 69.7601 298.106C70.367 297.499 70.7083 296.676 70.7093 295.817V229.427C70.7083 228.568 70.367 227.745 69.7601 227.138C69.1532 226.531 68.3303 226.189 67.472 226.189H59.5084Z" fill="#058C88"/>
<path d="M71.1276 156.633C86.3248 156.633 98.6446 144.31 98.6446 129.109C98.6446 113.907 86.3248 101.584 71.1276 101.584C55.9304 101.584 43.6107 113.907 43.6107 129.109C43.6107 144.31 55.9304 156.633 71.1276 156.633Z" fill="#058C88"/>
<path d="M80.2847 140.663C82.0684 140.613 84.2883 140.551 85.9985 139.302C86.5078 138.914 86.9262 138.42 87.2244 137.854C87.5227 137.288 87.6936 136.663 87.7251 136.024C87.7561 135.57 87.6815 135.115 87.5074 134.694C87.3333 134.273 87.0643 133.899 86.7214 133.599C85.8281 132.844 84.5238 132.667 83.1182 133.08L84.5745 122.435L83.5054 122.288L81.7933 134.804L82.6861 134.394C83.7211 133.919 85.1419 133.677 86.0248 134.424C86.2416 134.619 86.4105 134.861 86.5184 135.132C86.6263 135.403 86.6702 135.696 86.6467 135.986C86.6206 136.462 86.4923 136.927 86.2706 137.348C86.0489 137.77 85.739 138.139 85.362 138.43C84.0311 139.402 82.2616 139.528 80.2547 139.584L80.2847 140.663Z" fill="#2F2E41"/>
<path d="M95.6734 123.353H89.8616V124.432H95.6734V123.353Z" fill="#2F2E41"/>
<path d="M77.3288 123.353H71.517V124.432H77.3288V123.353Z" fill="#2F2E41"/>
<path d="M98.3929 246.131L88.4889 173.811C88.3827 173.036 87.9993 172.325 87.4096 171.81C86.8199 171.296 86.0639 171.012 85.2814 171.012H77.8058C77.8369 170.834 77.8531 170.654 77.8542 170.473V167.774C77.8542 166.915 77.5131 166.092 76.906 165.485C76.2989 164.877 75.4755 164.536 74.6169 164.536H68.1424C67.2838 164.536 66.4604 164.877 65.8533 165.485C65.2462 166.092 64.9051 166.915 64.9051 167.774V170.473C64.9062 170.654 64.9224 170.834 64.9536 171.012H57.4779C56.6954 171.012 55.9394 171.296 55.3497 171.81C54.76 172.325 54.3766 173.036 54.2703 173.811L44.3664 246.131C44.3037 246.589 44.3397 247.055 44.4722 247.498C44.6046 247.941 44.8303 248.35 45.1342 248.699C45.438 249.047 45.813 249.326 46.2338 249.518C46.6545 249.709 47.1114 249.808 47.5736 249.808H95.1856C95.6478 249.808 96.1047 249.709 96.5255 249.518C96.9463 249.326 97.3212 249.047 97.6251 248.699C97.9289 248.35 98.1547 247.941 98.2871 247.498C98.4196 247.055 98.4556 246.589 98.3929 246.131Z" fill="#2F2E41"/>
<path d="M82.9799 209.667V175.088L83.22 175.062C87.3244 174.623 91.4501 175.671 94.8475 178.016C98.2449 180.361 100.689 183.848 101.735 187.842L107.892 204.13L82.9799 209.667Z" fill="#2F2E41"/>
<path d="M69.7419 157.492L50.7091 150.102C47.5969 148.894 44.4672 147.723 41.3714 146.473C40.0453 146.01 38.8238 145.29 37.7772 144.354C36.866 143.389 36.245 142.187 35.9853 140.885C35.3252 138.094 35.4446 135.043 35.4916 132.195C35.5282 129.079 35.7845 125.97 36.2587 122.89C37.0899 117.103 39.0418 111.533 42.0051 106.494C47.3427 97.7336 56.539 91.1427 67.1172 91.6687C72.0145 91.9123 76.94 93.6701 80.5786 97.0193C80.9581 97.473 81.384 97.8859 81.8492 98.2511C82.1726 98.3725 82.5246 98.3961 82.8613 98.3191C83.3053 98.2905 83.7497 98.2687 84.1944 98.2537C85.7376 98.1886 87.2836 98.2534 88.8159 98.4476C91.6084 98.7493 94.2551 99.8486 96.4399 101.614C98.2583 103.179 99.7378 105.388 99.8901 107.842C99.9636 108.969 99.7773 110.098 99.3456 111.141C98.914 112.184 98.2485 113.115 97.4004 113.86C95.1297 115.774 91.89 115.102 89.1662 114.957L79.1879 114.428L74.1323 114.161C73.0913 114.105 73.0943 115.725 74.1323 115.78L87.5697 116.492C89.7291 116.606 91.9546 116.887 94.1157 116.757C95.7763 116.682 97.3618 116.044 98.6119 114.948C99.7535 113.899 100.604 112.572 101.08 111.096C101.556 109.621 101.642 108.047 101.329 106.528C100.637 103.215 98.172 100.475 95.2828 98.8453C91.3516 96.6272 86.6565 96.4147 82.2577 96.7426L82.83 96.9797C77.8542 91.6377 70.2323 89.3822 63.077 90.1715C55.5221 91.0049 48.8027 95.2209 43.9748 100.986C38.592 107.413 35.6588 115.428 34.5184 123.669C33.925 128.119 33.7296 132.612 33.9346 137.097C33.9262 139.074 34.2644 141.038 34.934 142.899C35.698 144.71 37.0793 146.191 38.8323 147.079C40.8421 148.05 42.9083 148.899 45.0198 149.622L52.0319 152.344L65.8056 157.692L69.3116 159.053C70.2833 159.43 70.7042 157.866 69.7419 157.492Z" fill="#2F2E41"/>
<path d="M39.8161 102.471C38.1621 102.471 36.5452 101.98 35.1699 101.061C33.7946 100.142 32.7227 98.8354 32.0897 97.3069C31.4567 95.7783 31.2911 94.0963 31.6138 92.4736C31.9365 90.8509 32.733 89.3603 33.9026 88.1904C35.0722 87.0205 36.5623 86.2238 38.1846 85.901C39.8068 85.5782 41.4883 85.7439 43.0165 86.3771C44.5446 87.0102 45.8507 88.0824 46.7697 89.4581C47.6886 90.8337 48.1791 92.4511 48.1791 94.1056C48.1766 96.3234 47.2947 98.4497 45.7269 100.018C44.1591 101.586 42.0333 102.468 39.8161 102.471ZM39.8161 87.3594C38.4822 87.3594 37.1782 87.755 36.0691 88.4963C34.96 89.2376 34.0956 90.2912 33.5851 91.5239C33.0747 92.7566 32.9411 94.1131 33.2013 95.4217C33.4616 96.7303 34.1039 97.9324 35.0471 98.8759C35.9903 99.8194 37.1921 100.462 38.5004 100.722C39.8086 100.982 41.1647 100.849 42.3971 100.338C43.6294 99.8277 44.6828 98.963 45.4238 97.8536C46.1649 96.7442 46.5605 95.4399 46.5605 94.1056C46.5584 92.317 45.8472 90.6022 44.5829 89.3375C43.3185 88.0728 41.6042 87.3614 39.8161 87.3594Z" fill="#2F2E41"/>
<path d="M179.615 154.312L161.514 140.463L147.67 158.57L165.771 172.418L179.615 154.312Z" fill="#F0F0F0"/>
<path d="M77.3147 30.6912C80.1747 30.6889 82.9955 31.3566 85.5512 32.6408C88.1069 33.9249 90.3265 35.7898 92.0321 38.0862L102.602 24.2625L70.8878 0L46.6321 31.7228L60.3007 42.1799C61.6686 38.7866 64.0193 35.8797 67.051 33.8325C70.0826 31.7854 73.6569 30.6914 77.3147 30.6912Z" fill="#F0F0F0"/>
<path d="M381.46 300H0.539548C0.396451 300 0.259214 299.943 0.15803 299.842C0.0568447 299.741 0 299.603 0 299.46C0 299.317 0.0568447 299.18 0.15803 299.079C0.259214 298.977 0.396451 298.921 0.539548 298.921H381.46C381.604 298.921 381.741 298.977 381.842 299.079C381.943 299.18 382 299.317 382 299.46C382 299.603 381.943 299.741 381.842 299.842C381.741 299.943 381.604 300 381.46 300Z" fill="#3F3D56"/>
<path d="M288.49 210.448H249.716C248.286 210.446 246.915 209.877 245.903 208.865C244.892 207.853 244.323 206.482 244.321 205.051V202.364C244.323 200.933 244.892 199.562 245.903 198.55C246.915 197.538 248.286 196.969 249.716 196.967H288.49C289.92 196.969 291.291 197.538 292.303 198.55C293.314 199.562 293.883 200.933 293.885 202.364V205.051C293.883 206.482 293.314 207.853 292.303 208.865C291.291 209.877 289.92 210.446 288.49 210.448Z" fill="#058C88"/>
<path d="M292.575 205.269H253.802C252.3 205.267 250.86 204.67 249.798 203.607C248.736 202.545 248.138 201.105 248.137 199.602V196.916C248.138 195.413 248.736 193.973 249.798 192.911C250.86 191.848 252.3 191.251 253.802 191.249H292.575C294.077 191.251 295.517 191.848 296.579 192.911C297.641 193.973 298.239 195.413 298.24 196.916V199.602C298.239 201.105 297.641 202.545 296.579 203.607C295.517 204.67 294.077 205.267 292.575 205.269ZM253.802 192.328C252.586 192.33 251.42 192.813 250.56 193.673C249.701 194.533 249.217 195.7 249.216 196.916V199.602C249.217 200.818 249.701 201.984 250.56 202.844C251.42 203.704 252.586 204.188 253.802 204.19H292.575C293.791 204.188 294.957 203.704 295.816 202.844C296.676 201.984 297.16 200.818 297.161 199.602V196.916C297.16 195.7 296.676 194.533 295.816 193.673C294.957 192.813 293.791 192.33 292.575 192.328H253.802Z" fill="#3F3D56"/>
</g>
<defs>
<clipPath id="clip0_17_957">
<rect width="382" height="300" fill="white"/>
</clipPath>
</defs>
</svg>
